<svg width="192" height="192" viewBox="0 0 192 192" fill="none" xmlns="http://www.w3.org/2000/svg">
  <rect width="192" height="192" rx="44" fill="#7b1131"/>
  <path d="M58 132V60h20c23 0 36 11 36 31 0 24-16 41-43 41H58Zm20-18h6c13 0 21-9 21-22 0-9-5-14-15-14h-12v36Z" fill="white"/>
  <circle cx="132" cy="96" r="18" fill="#f1d9e1"/>
</svg>

<svg width="512" height="512" viewBox="0 0 512 512" fill="none" xmlns="http://www.w3.org/2000/svg">
  <rect width="512" height="512" rx="120" fill="#7b1131"/>
  <path d="M152 351V160h54c64 0 103 28 103 83 0 65-45 108-121 108h-36Zm54-46h17c35 0 57-24 57-56 0-24-15-42-44-42h-30v98Z" fill="white"/>
  <circle cx="358" cy="256" r="48" fill="#f1d9e1"/>
</svg>

